<svg xmlns="http://www.w3.org/2000/svg" viewBox="0 0 24 30" fill="none" x="0px" y="0px"><path fill-rule="evenodd" clip-rule="evenodd" d="M15.1695 10.3483L15.1695 15.9194C15.1695 16.1955 15.3933 16.4194 15.6695 16.4194H16.6695C16.9456 16.4194 17.1695 16.1955 17.1695 15.9194L17.1695 7.43407C17.1695 7.15793 16.9456 6.93407 16.6695 6.93407L8.18417 6.93407C7.90803 6.93407 7.68417 7.15793 7.68417 7.43407L7.68417 8.43407C7.68417 8.71021 7.90803 8.93407 8.18417 8.93407H13.7552L6.62349 16.0658C6.42823 16.2611 6.42823 16.5776 6.62349 16.7729L7.3306 17.48C7.52586 17.6753 7.84244 17.6753 8.0377 17.48L15.1695 10.3483Z" fill="black"/>

</svg>