<svg id="visual" viewBox="0 0 960 540" width="960" height="540" xmlns="http://www.w3.org/2000/svg" xmlns:xlink="http://www.w3.org/1999/xlink" version="1.1"><g transform="translate(441.5048225406263 283.3201737273635)"><path d="M157.9 -187.5C202.2 -151 234 -98.9 243.5 -43.3C252.9 12.4 239.9 71.7 210.2 119.6C180.5 167.5 134 204 86.4 209C38.9 213.9 -9.8 187.3 -51 162.6C-92.1 137.8 -125.7 114.9 -146.3 82.8C-167 50.6 -174.6 9.3 -166.1 -27.6C-157.6 -64.5 -133 -96.9 -102.7 -135.9C-72.3 -174.9 -36.2 -220.4 10.3 -232.7C56.8 -245 113.6 -224 157.9 -187.5" fill="#3966ff"></path></g></svg>