<svg xmlns="http://www.w3.org/2000/svg" xmlns:xlink="http://www.w3.org/1999/xlink" version="1.1" x="0px" y="0px" viewBox="0 0 100 125" enable-background="new 0 0 100 100" xml:space="preserve"><path fill="#000000" d="M54.4,45.9c7.4,2.6,10.4,6,10.4,11.6c0,5.5-3.9,10.3-11.1,11.5v3.4h0c-0.1,1.6-1.4,2.9-3,2.9  c-1.7,0-3-1.4-3-3c0,0,0,0,0-0.1v-2.8c-4.2-0.2-8.2-1.3-10.6-2.7h0c-1.2-0.7-2-1.9-2-3.4c0-1.9,1.3-3.4,3-3.8h0c0.1,0,0.3,0,0.4,0  c0.3,0,0.6,0.1,0.9,0.2c2.6,1.3,6,2.5,9.8,2.5c3.6,0,6-1.4,6-3.8c0-2.4-2-3.8-6.6-5.4c-6.7-2.2-11.2-5.4-11.2-11.4  c0-5.5,3.8-9.8,10.5-11.1v-2.9l0,0c0-1.7,1.4-3,3-3c1.7,0,3,1.4,3,3v2.4c4.2,0.2,7,1.1,9,2.1l0,0l0,0l0,0l0,0  c1.1,0.6,1.9,1.9,1.9,3.3c0,1.8-1.3,3.3-3,3.7c0,0,0,0,0,0c-0.1,0-0.2,0-0.4,0c-0.3,0-0.5-0.1-0.7-0.2l0,0c-1.7-0.7-4.4-1.9-8.5-1.9  c-4,0-5.4,1.7-5.4,3.5C47,42.6,49.2,43.9,54.4,45.9z"/><path fill="#000000" d="M50,100c-13.4,0-25.9-5.2-35.4-14.6C5.2,75.9,0,63.4,0,50s5.2-25.9,14.6-35.4S36.6,0,50,0  s25.9,5.2,35.4,14.6S100,36.6,100,50s-5.2,25.9-14.6,35.4C75.9,94.8,63.4,100,50,100z M50,7.8c-11.3,0-21.9,4.4-29.8,12.4  S7.8,38.7,7.8,50s4.4,21.9,12.4,29.8S38.7,92.2,50,92.2s21.9-4.4,29.8-12.4S92.2,61.3,92.2,50s-4.4-21.9-12.3-29.8S61.3,7.8,50,7.8z  "/><text x="0" y="115" fill="#000000" font-size="5px" font-weight="bold" font-family="'Helvetica Neue', Helvetica, Arial-Unicode, Arial, Sans-serif"></text><text x="0" y="120" fill="#000000" font-size="5px" font-weight="bold" font-family="'Helvetica Neue', Helvetica, Arial-Unicode, Arial, Sans-serif">from the Noun Project</text></svg>