<svg xmlns="http://www.w3.org/2000/svg" xmlns:xlink="http://www.w3.org/1999/xlink" version="1.1" width="256" height="256" viewBox="0 0 256 256" xml:space="preserve">

<defs>
</defs>
<g style="stroke: none; stroke-width: 0; stroke-dasharray: none; stroke-linecap: butt; stroke-linejoin: miter; stroke-miterlimit: 10; fill: none; fill-rule: nonzero; opacity: 1;" transform="translate(1.4065934065934016 1.4065934065934016) scale(2.81 2.81)" >
	<path d="M 43.474 41.024 l -4.503 -1.65 c -0.102 -0.037 -0.205 -0.07 -0.312 -0.102 c -1.282 -0.376 -2.285 -1.303 -2.75 -2.543 c -0.394 -1.051 -0.355 -2.192 0.109 -3.214 c 0.465 -1.021 1.299 -1.802 2.35 -2.196 c 1.051 -0.395 2.192 -0.354 3.213 0.109 c 1.022 0.465 1.802 1.299 2.196 2.35 c 0.983 2.623 3.916 3.96 6.547 2.976 c 2.624 -0.985 3.959 -3.921 2.975 -6.546 c -1.502 -4.004 -4.638 -7.061 -8.667 -8.482 v -0.938 c 0 -2.804 -2.281 -5.084 -5.084 -5.084 s -5.084 2.281 -5.084 5.084 v 1.141 c -7.196 2.903 -10.814 11.063 -8.074 18.37 c 1.578 4.207 4.952 7.373 9.205 8.667 l 4.519 1.655 c 0.105 0.039 0.211 0.073 0.321 0.106 c 1.283 0.376 2.286 1.304 2.75 2.543 c 0.394 1.051 0.355 2.191 -0.109 3.213 c -0.465 1.022 -1.299 1.802 -2.351 2.195 c -1.049 0.396 -2.191 0.356 -3.214 -0.108 c -1.021 -0.464 -1.801 -1.299 -2.195 -2.35 c -0.984 -2.625 -3.92 -3.956 -6.546 -2.977 c -2.624 0.985 -3.959 3.922 -2.975 6.546 c 1.348 3.595 4.014 6.449 7.508 8.037 c 0.358 0.163 0.737 0.313 1.16 0.457 v 0.926 c 0 2.804 2.281 5.084 5.084 5.084 s 5.084 -2.28 5.084 -5.084 v -1.14 c 3.436 -1.386 6.162 -3.994 7.701 -7.378 c 1.589 -3.496 1.722 -7.399 0.373 -10.991 C 51.131 45.504 47.768 42.343 43.474 41.024 z M 50.511 59.865 c -1.368 3.008 -3.825 5.303 -6.915 6.463 l -0.295 0.095 c -0.401 0.141 -0.67 0.52 -0.67 0.944 v 1.844 c 0 1.7 -1.384 3.084 -3.084 3.084 s -3.084 -1.384 -3.084 -3.084 v -1.656 c 0 -0.442 -0.291 -0.832 -0.715 -0.958 c -0.64 -0.191 -1.153 -0.378 -1.617 -0.589 c -3.008 -1.367 -5.303 -3.824 -6.463 -6.919 c -0.597 -1.592 0.213 -3.373 1.804 -3.971 c 0.355 -0.133 0.72 -0.196 1.079 -0.196 c 1.25 0 2.429 0.765 2.892 2.002 c 0.582 1.552 1.733 2.783 3.241 3.468 c 1.507 0.685 3.192 0.742 4.743 0.161 s 2.783 -1.731 3.469 -3.24 c 0.685 -1.508 0.742 -3.192 0.161 -4.742 c -0.688 -1.835 -2.168 -3.206 -4.058 -3.761 c -0.064 -0.019 -0.127 -0.039 -0.194 -0.064 l -4.576 -1.675 c -3.706 -1.129 -6.61 -3.853 -7.968 -7.473 c -2.395 -6.387 0.853 -13.531 7.239 -15.926 l 0.29 -0.091 c 0.402 -0.14 0.672 -0.519 0.672 -0.945 v -1.846 c 0 -1.701 1.384 -3.084 3.084 -3.084 s 3.084 1.384 3.084 3.084 v 1.664 c 0 0.442 0.291 0.833 0.715 0.958 c 3.767 1.12 6.712 3.853 8.079 7.499 c 0.598 1.592 -0.212 3.374 -1.804 3.971 c -1.593 0.596 -3.376 -0.213 -3.972 -1.805 c -0.582 -1.551 -1.732 -2.783 -3.241 -3.468 c -1.508 -0.686 -3.192 -0.744 -4.744 -0.161 c -1.551 0.582 -2.782 1.733 -3.468 3.241 c -0.685 1.508 -0.743 3.193 -0.161 4.744 c 0.688 1.834 2.168 3.205 4.056 3.758 c 0.067 0.02 0.134 0.042 0.195 0.064 l 4.524 1.657 c 0.017 0.006 0.034 0.012 0.052 0.018 c 3.708 1.131 6.611 3.855 7.968 7.476 C 51.992 53.496 51.878 56.856 50.511 59.865 z" style="stroke: none; stroke-width: 1; stroke-dasharray: none; stroke-linecap: butt; stroke-linejoin: miter; stroke-miterlimit: 10; fill: rgb(0,0,0); fill-rule: nonzero; opacity: 1;" transform=" matrix(1 0 0 1 0 0) " stroke-linecap="round" />
	<path d="M 87.025 24.259 h -13.82 C 66.036 12.651 53.195 5.454 39.546 5.454 C 17.74 5.454 0 23.194 0 45 s 17.74 39.546 39.546 39.546 c 13.846 0 26.399 -7.027 33.665 -18.806 h 13.814 c 1.641 0 2.975 -1.334 2.975 -2.975 V 27.234 C 90 25.594 88.666 24.259 87.025 24.259 z M 39.546 82.546 C 18.843 82.546 2 65.703 2 45 S 18.843 7.454 39.546 7.454 c 12.541 0 24.36 6.403 31.281 16.805 h -8.268 c -1.641 0 -2.975 1.334 -2.975 2.975 v 35.532 c 0 1.641 1.334 2.975 2.975 2.975 h 8.27 C 63.842 76.286 52.272 82.546 39.546 82.546 z M 88 62.766 c 0 0.537 -0.438 0.975 -0.975 0.975 H 62.559 c -0.537 0 -0.975 -0.438 -0.975 -0.975 V 27.234 c 0 -0.538 0.438 -0.975 0.975 -0.975 h 24.467 c 0.537 0 0.975 0.437 0.975 0.975 V 62.766 z" style="stroke: none; stroke-width: 1; stroke-dasharray: none; stroke-linecap: butt; stroke-linejoin: miter; stroke-miterlimit: 10; fill: rgb(0,0,0); fill-rule: nonzero; opacity: 1;" transform=" matrix(1 0 0 1 0 0) " stroke-linecap="round" />
	<path d="M 72.552 40.708 h -6.584 c -0.553 0 -1 0.448 -1 1 v 6.584 c 0 0.553 0.447 1 1 1 h 6.584 c 0.553 0 1 -0.447 1 -1 v -6.584 C 73.552 41.156 73.104 40.708 72.552 40.708 z M 71.552 47.292 h -4.584 v -4.584 h 4.584 V 47.292 z" style="stroke: none; stroke-width: 1; stroke-dasharray: none; stroke-linecap: butt; stroke-linejoin: miter; stroke-miterlimit: 10; fill: rgb(0,0,0); fill-rule: nonzero; opacity: 1;" transform=" matrix(1 0 0 1 0 0) " stroke-linecap="round" />
	<path d="M 83.617 40.708 h -6.584 c -0.553 0 -1 0.448 -1 1 v 6.584 c 0 0.553 0.447 1 1 1 h 6.584 c 0.553 0 1 -0.447 1 -1 v -6.584 C 84.617 41.156 84.17 40.708 83.617 40.708 z M 82.617 47.292 h -4.584 v -4.584 h 4.584 V 47.292 z" style="stroke: none; stroke-width: 1; stroke-dasharray: none; stroke-linecap: butt; stroke-linejoin: miter; stroke-miterlimit: 10; fill: rgb(0,0,0); fill-rule: nonzero; opacity: 1;" transform=" matrix(1 0 0 1 0 0) " stroke-linecap="round" />
	<path d="M 72.552 51.773 h -6.584 c -0.553 0 -1 0.447 -1 1 v 6.584 c 0 0.553 0.447 1 1 1 h 6.584 c 0.553 0 1 -0.447 1 -1 v -6.584 C 73.552 52.221 73.104 51.773 72.552 51.773 z M 71.552 58.357 h -4.584 v -4.584 h 4.584 V 58.357 z" style="stroke: none; stroke-width: 1; stroke-dasharray: none; stroke-linecap: butt; stroke-linejoin: miter; stroke-miterlimit: 10; fill: rgb(0,0,0); fill-rule: nonzero; opacity: 1;" transform=" matrix(1 0 0 1 0 0) " stroke-linecap="round" />
	<path d="M 83.617 51.773 h -6.584 c -0.553 0 -1 0.447 -1 1 v 6.584 c 0 0.553 0.447 1 1 1 h 6.584 c 0.553 0 1 -0.447 1 -1 v -6.584 C 84.617 52.221 84.17 51.773 83.617 51.773 z M 82.617 58.357 h -4.584 v -4.584 h 4.584 V 58.357 z" style="stroke: none; stroke-width: 1; stroke-dasharray: none; stroke-linecap: butt; stroke-linejoin: miter; stroke-miterlimit: 10; fill: rgb(0,0,0); fill-rule: nonzero; opacity: 1;" transform=" matrix(1 0 0 1 0 0) " stroke-linecap="round" />
	<path d="M 83.617 29.643 H 65.968 c -0.553 0 -1 0.448 -1 1 v 6.584 c 0 0.552 0.447 1 1 1 h 17.649 c 0.553 0 1 -0.448 1 -1 v -6.584 C 84.617 30.09 84.17 29.643 83.617 29.643 z M 82.617 36.227 H 66.968 v -4.584 h 15.649 V 36.227 z" style="stroke: none; stroke-width: 1; stroke-dasharray: none; stroke-linecap: butt; stroke-linejoin: miter; stroke-miterlimit: 10; fill: rgb(0,0,0); fill-rule: nonzero; opacity: 1;" transform=" matrix(1 0 0 1 0 0) " stroke-linecap="round" />
</g>
</svg>