<?xml version="1.0" encoding="UTF-8" standalone="no"?> <svg id="Line" xmlns="http://www.w3.org/2000/svg" viewBox="0 0 64 64"><title>1</title><path d="M37.86719,25.79688a.99942.99942,0,0,0-1-1H16.64551a1,1,0,0,0,0,2H36.86719A.99943.99943,0,0,0,37.86719,25.79688Z"/><path d="M26.75586,16.38965a1.00019,1.00019,0,0,0-.00006-2H16.64551a1.00019,1.00019,0,0,0,0,2Z"/><path d="M26.75586,38.2041a1.00019,1.00019,0,0,0-.00006-2H16.64551a1.00019,1.00019,0,0,0,0,2Z"/><path d="M16.64551,49.61133H29.21875a1.00019,1.00019,0,0,0-.00006-2H16.64551A1.00019,1.00019,0,0,0,16.64551,49.61133Z"/><path d="M31.219,37.204a1.00015,1.00015,0,0,0-1.99993.00006A1.00015,1.00015,0,0,0,31.219,37.204Z"/><path d="M52.83008,30.042H46.34961V10a6.00657,6.00657,0,0,0-6-6H13.16992a6.00657,6.00657,0,0,0-6,6V53.999a6.00656,6.00656,0,0,0,6,6H30.2998a1.00016,1.00016,0,0,0-.00006-2H13.16992a4.004,4.004,0,0,1-4-4V10a4.004,4.004,0,0,1,4-4H31.38574v6.96094a6.00657,6.00657,0,0,0,6,6h6.96387V30.042H37.86133a4.004,4.004,0,0,0-4,4V56a4.004,4.004,0,0,0,4,4H52.83008a4.004,4.004,0,0,0,4-4V34.042A4.004,4.004,0,0,0,52.83008,30.042Zm-15.44434-13.081a4.004,4.004,0,0,1-4-4V7.415l9.5459,9.5459ZM34.79883,6h5.55078a4.004,4.004,0,0,1,4,4v5.55078ZM54.83008,56a2.0026,2.0026,0,0,1-2,2H37.86133a2.0026,2.0026,0,0,1-2-2V34.042a2.0026,2.0026,0,0,1,2-2H52.83008a2.0026,2.0026,0,0,1,2,2Z"/><path d="M52.335,33.53613H38.35645a.99942.99942,0,0,0-1,1v6.99024a.99942.99942,0,0,0,1,1H52.335a.99942.99942,0,0,0,1-1V34.53613A.99942.99942,0,0,0,52.335,33.53613Zm-1,6.99024H39.35645V35.53613H51.335Z"/><path d="M40.82324,47.51563H38.35645a1.00019,1.00019,0,0,0,0,2h2.46679A1.00019,1.00019,0,0,0,40.82324,47.51563Z"/><path d="M52.335,47.51563h-2.4668a1,1,0,0,0,0,2H52.335A1.00019,1.00019,0,0,0,52.335,47.51563Z"/><path d="M52.335,44.02051h-2.4668a1,1,0,0,0,0,2H52.335A1.00019,1.00019,0,0,0,52.335,44.02051Z"/><path d="M46.5791,47.51563H44.1123a1,1,0,1,0,0,2h2.4668A1.00019,1.00019,0,0,0,46.5791,47.51563Z"/><path d="M40.82324,51.01074H38.35645a1.00019,1.00019,0,0,0,0,2h2.46679A1.00019,1.00019,0,0,0,40.82324,51.01074Z"/><path d="M52.335,51.01074h-2.4668a1,1,0,0,0,0,2H52.335A1.00019,1.00019,0,0,0,52.335,51.01074Z"/><path d="M46.5791,51.01074H44.1123a1,1,0,0,0,0,2h2.4668A1.00019,1.00019,0,0,0,46.5791,51.01074Z"/><path d="M40.82324,54.50488H38.35645a1.00019,1.00019,0,0,0,0,2h2.46679A1.00019,1.00019,0,0,0,40.82324,54.50488Z"/><path d="M52.335,54.50488h-2.4668a1,1,0,0,0,0,2H52.335A1.00019,1.00019,0,0,0,52.335,54.50488Z"/><path d="M46.5791,54.50488H44.1123a1,1,0,1,0,0,2h2.4668A1.00019,1.00019,0,0,0,46.5791,54.50488Z"/></svg>