<svg xmlns="http://www.w3.org/2000/svg" xmlns:xlink="http://www.w3.org/1999/xlink" version="1.1" x="0px" y="0px" viewBox="0 0 100 125" enable-background="new 0 0 100 100" xml:space="preserve"><path d="M64.833,51.354c-0.549-0.563-1.221-1.063-2.02-1.5c-0.797-0.438-1.895-0.914-3.293-1.428  c-1.398-0.515-2.393-1.058-2.977-1.632c-0.584-0.573-0.875-1.336-0.875-2.287c0-1.063,0.293-1.874,0.883-2.443  c0.59-0.563,1.412-0.854,2.459-0.854c1.064,0,1.898,0.396,2.52,1.188c0.613,0.791,0.926,1.877,0.926,3.254h3.969  c0-2.143-0.52-3.884-1.559-5.223c-1.039-1.34-2.512-2.146-4.41-2.419v-3.604h-2.625v3.572c-1.895,0.221-3.389,0.913-4.492,2.082  c-1.104,1.17-1.656,2.662-1.656,4.479c0,2.679,1.271,4.701,3.822,6.063c0.76,0.417,1.834,0.864,3.213,1.354  c1.377,0.479,2.359,1.029,2.951,1.638c0.59,0.608,0.885,1.377,0.885,2.302c0,0.995-0.313,1.793-0.973,2.396  c-0.65,0.601-1.6,0.896-2.848,0.896c-1.27,0-2.248-0.378-2.943-1.132c-0.693-0.753-1.043-1.813-1.043-3.191h-3.982  c0,2.162,0.58,3.898,1.746,5.217c1.164,1.311,2.83,2.088,4.994,2.326v3.184h2.605v-3.198c2.02-0.206,3.6-0.885,4.729-2.032  c1.133-1.146,1.699-2.646,1.699-4.486c0-0.983-0.148-1.848-0.445-2.573C65.8,52.564,65.378,51.916,64.833,51.354z M32.987,56.495  v-4.271H20.724v-4.429h12.264v-4.279l9.172,6.494L32.987,56.495z M58.651,70.625c-9.297,0-17.16-6.188-19.727-14.658l8.426-5.965  l-8.426-5.968c2.563-8.478,10.43-14.659,19.727-14.659c11.373,0,20.625,9.253,20.625,20.625S70.024,70.625,58.651,70.625z"/><text x="0" y="115" fill="#000000" font-size="5px" font-weight="bold" font-family="'Helvetica Neue', Helvetica, Arial-Unicode, Arial, Sans-serif">Created by Sergey Demushkin</text><text x="0" y="120" fill="#000000" font-size="5px" font-weight="bold" font-family="'Helvetica Neue', Helvetica, Arial-Unicode, Arial, Sans-serif">from the Noun Project</text></svg>