<svg xmlns="http://www.w3.org/2000/svg" width="512" height="512" viewBox="0 0 512 512" id="world-travel"><circle cx="256" cy="256" r="232" fill="#d3effe"></circle><circle cx="256" cy="256" r="192" fill="#80daff"></circle><path fill="#fac850" d="M189.0376,377.1877l-2.0752-10.3754a19.7772,19.7772,0,0,1,10.5486-21.5679l7.5564-3.7781A19.7772,19.7772,0,0,0,216,323.7771h0A19.7771,19.7771,0,0,0,196.2229,304H168l-21.6189-10.8094a20,20,0,0,0-20.0383,1.2475L112,304H70.0747a192.6331,192.6331,0,0,0,77.3711,110.2771l31.0432-15.5217A19.7771,19.7771,0,0,0,189.0376,377.1877Z"></path><rect width="16" height="16" x="224" y="368" fill="#d3effe"></rect><rect width="16" height="16" x="288" y="112" fill="#d3effe"></rect><rect width="16" height="16" x="352" y="312" fill="#d3effe"></rect><rect width="16" height="16" x="104" y="200" fill="#d3effe"></rect><path fill="#fac850" d="M313.1506,252.0821l7.7938-8.755L304.729,235.324c-9.0419-4.4626-11.547-16.2112-5.2037-24.4047l7.5693-9.7772a16.9576,16.9576,0,0,1,4.65...8A10,10,0,0,1,162.84,125.87Z"></path><path fill="#25b1fa" d="M295.9722 432l-35.5192-15.68a10 10 0 0 1 0-16.641l30.4808-12.3205A20 20 0 0 1 302.0278 384h26.69L400 336h24l-32 56 48 8 32-24h16l-16 56zM216.0278 136l35.5192-15.68a10 10 0 0 0 0-16.641L221.0662 91.359A20 20 0 0 0 209.9722 88h-26.69L112 40H88l32 56-48 8L40 80H24l16 56z"></path><path fill="#80daff" d="M32 256A223.3781 223.3781 0 0 1 57.6438 152H39.731A239.6379 239.6379 0 0 0 67.9541 404.9741l12.5313-9.9482A221.4639 221.4639 0 0 1 32 256zM408 40V70.3877A239.6561 239.6561 0 0 0 152 39.7311V57.6444A223.6452 223.6452 0 0 1 410.4785 93.939 8.0006 8.0006 0 0 0 424 88.1494V40zM256 480A223.3695 223.3695 0 0 1 93.9385 410.48a8 8 0 0 0-13.7891 5.5l-.1494 56 16 .043.1-37.1734A239.567 239.567 0 0 0 384 458.9229V439.7206A223.7984 223.7984 0 0 1 256 480zM437.1729 98.7524l-12.0762 10.4952A223.7524 223.7524 0 0 1 480 256a221.215 221.215 0 0 1-30.0166 112h18.3147A237.23 237.23 0 0 0 496 256 239.75 239.75 0 0 0 437.1729 98.7524z"></path></svg>